<svg width="104.000000" height="104.000000" viewBox="0 0 104 104" fill="none" xmlns="http://www.w3.org/2000/svg" xmlns:xlink="http://www.w3.org/1999/xlink">
	<desc>
			Created with Pixso.
	</desc>
	<defs>
		<clipPath id="clip125_993">
			<rect id="172581_battery_charge_icon 1" width="103.999992" height="104.000008" transform="translate(0.000000 104.000000) rotate(-90.000000)" fill="white" fill-opacity="0"/>
		</clipPath>
	</defs>
	<rect id="172581_battery_charge_icon 1" width="103.999992" height="104.000008" transform="translate(0.000000 104.000000) rotate(-90.000000)" fill="#FFFFFF" fill-opacity="0"/>
	<g clip-path="url(#clip125_993)">
		<path id="Vector" d="M43.6802 12.48L35.3599 12.48C30.7651 12.48 27.04 16.2056 27.04 20.8003L27.04 87.3604C27.04 91.9551 30.7651 95.6802 35.3599 95.6802L68.6401 95.6802C73.2349 95.6802 76.96 91.9551 76.96 87.3604L76.96 20.8003C76.96 16.2056 73.2349 12.48 68.6401 12.48L60.3198 12.48L60.3198 6.24023L43.6802 6.24023L43.6802 12.48Z" stroke="#999999" stroke-opacity="1.000000" stroke-width="2.000000" stroke-linejoin="round"/>
		<path id="Vector" d="M49.7656 50L43.6802 50Q43.4658 50 43.2568 50.0454Q43.0474 50.0903 42.8525 50.1792Q42.0986 50.522 41.8076 51.2979Q41.5166 52.0732 41.8594 52.8276L52.2593 75.7075Q52.5278 76.2983 53.0923 76.6187Q53.6562 76.9395 54.3013 76.8677Q55.1245 76.7764 55.6421 76.1294Q56.1597 75.4824 56.0679 74.6592L54.2349 58.1597L60.3203 58.1597Q60.5342 58.1597 60.7437 58.1147Q60.9526 58.0693 61.1479 57.9805Q61.9019 57.6377 62.1929 56.8623Q62.4839 56.0864 62.1411 55.3325L51.7407 32.4521Q51.4727 31.8618 50.9082 31.541Q50.3442 31.2207 49.6992 31.292Q48.876 31.3838 48.3584 32.0303Q47.8408 32.6772 47.9326 33.501L49.7656 50ZM51.7778 50L52 52L43.6802 52L51.417 69.0205L54.0801 74.8799L53.3696 68.4829L52.2222 58.1597L52 56.1597L60.3203 56.1597L59.4111 54.1597L52.5835 39.1392L49.9204 33.2798L50.6309 39.6768L51.7778 50Z" fill="#009EFF" fill-opacity="1.000000" fill-rule="evenodd"/>
		<path id="Vector 8" d="M32 22L32 52" stroke="#009EFF" stroke-opacity="1.000000" stroke-width="2.000000" stroke-linecap="round"/>
		<path id="Vector 9" d="M32 58L32 69" stroke="#009EFF" stroke-opacity="1.000000" stroke-width="2.000000" stroke-linecap="round"/>
	</g>
</svg>
