<svg width="38.000000" height="37.000000" viewBox="0 0 38 37" fill="none" xmlns="http://www.w3.org/2000/svg" xmlns:xlink="http://www.w3.org/1999/xlink">
	<desc>
			Created with Pixso.
	</desc>
	<defs>
		<clipPath id="clip259_6028">
			<rect id="Frame" width="38.000000" height="37.000000" fill="white" fill-opacity="0"/>
		</clipPath>
	</defs>
	<rect id="Frame" width="38.000000" height="37.000000" fill="#FFFFFF" fill-opacity="0"/>
	<g clip-path="url(#clip259_6028)">
		<path id="Vector" d="M34.9248 27.0333C34.7803 26.6368 34.3447 26.4344 33.9526 26.5806L26.0801 29.5145C25.6875 29.6606 25.4873 30.1007 25.6318 30.4965C25.7446 30.8053 26.0342 30.9965 26.3423 30.9965C26.4292 30.9965 26.5176 30.9814 26.6045 30.9492L34.4766 28.0153C34.8691 27.8691 35.0698 27.4291 34.9248 27.0333Z" fill="#999999" fill-opacity="1.000000" fill-rule="nonzero"/>
		<path id="Vector" d="M24.8887 30.7738C24.7441 30.3773 24.3081 30.1749 23.9165 30.321L23.583 30.4455C23.1914 30.5917 22.9902 31.0317 23.1348 31.4275C23.2476 31.7363 23.5371 31.9274 23.8452 31.9274C23.9321 31.9274 24.0205 31.9125 24.1069 31.8802L24.4404 31.7558C24.832 31.6089 25.0332 31.1696 24.8887 30.7738Z" fill="#999999" fill-opacity="1.000000" fill-rule="nonzero"/>
		<path id="Vector" d="M34.9248 23.9174C34.7803 23.5208 34.3447 23.3184 33.9526 23.4646L27.7314 25.7831C27.3389 25.9293 27.1387 26.3693 27.2832 26.7651C27.396 27.0739 27.6855 27.2651 27.9937 27.2651C28.0806 27.2651 28.1689 27.2501 28.2559 27.2178L34.4775 24.8994C34.8691 24.7532 35.0698 24.3139 34.9248 23.9174Z" fill="#999999" fill-opacity="1.000000" fill-rule="nonzero"/>
		<path id="Vector" d="M34.9248 20.835C34.7803 20.4384 34.3447 20.236 33.9526 20.3822L27.7314 22.7007C27.3389 22.8469 27.1387 23.2869 27.2832 23.6827C27.396 23.9915 27.6855 24.1827 27.9937 24.1827C28.0806 24.1827 28.1689 24.1677 28.2559 24.1354L34.4775 21.817C34.8691 21.6708 35.0698 21.2308 34.9248 20.835Z" fill="#999999" fill-opacity="1.000000" fill-rule="nonzero"/>
		<path id="Vector" d="M37.5049 6.84607L19.2622 0.0472412C19.0928 -0.0157471 18.9072 -0.0157471 18.7378 0.0472412L0.495117 6.84607L0.495117 6.8468C0.435547 6.86926 0.37793 6.8985 0.324219 6.93597C0.121094 7.07843 0 7.31305 0 7.56342L0 29.4366C0 29.7567 0.197266 30.043 0.495117 30.1539L18.7378 36.9528C18.8232 36.9843 18.9116 37 19 37C19.0889 37 19.1782 36.9835 19.2622 36.952L19.2622 36.9528L37.5049 30.1539C37.8027 30.043 38 29.7567 38 29.4366L38 7.56342C38 7.24261 37.8027 6.95697 37.5049 6.84607ZM18.2432 35.138L1.51416 28.9036L1.51416 8.6601L4.9209 9.92987L4.9209 19.1934C4.9209 19.5134 5.11816 19.7998 5.41553 19.9108L13.5908 22.9571C13.6763 22.9886 13.7646 23.0043 13.853 23.0043C14.0059 23.0043 14.1572 22.9578 14.2856 22.8671C14.4888 22.7239 14.6099 22.4901 14.6099 22.2397L14.6099 13.5406L18.2437 14.8945L18.2432 35.138ZM13.0957 12.9763L13.0957 21.1423L6.43457 18.6597L6.43457 10.4936L13.0957 12.9763ZM7.86426 9.39093L13.853 7.15936L19.8418 9.39093L13.853 11.6224L7.86426 9.39093ZM19 13.5467L16.0312 12.4402L22.29 10.1075C22.5879 9.99658 22.7852 9.71027 22.7852 9.3902C22.7852 9.07007 22.5879 8.78375 22.29 8.67279L14.1147 5.62646C13.9458 5.56348 13.7603 5.56348 13.5908 5.62646L5.66895 8.5791L2.94336 7.56342L19 1.57941L35.0566 7.56268L19 13.5467ZM36.4858 28.9036L19.7568 35.138L19.7568 14.8945L36.4858 8.6601L36.4858 28.9036Z" fill="#999999" fill-opacity="1.000000" fill-rule="nonzero"/>
	</g>
</svg>
