<svg width="200.302246" height="192.740967" viewBox="0 0 200.302 192.741" fill="none" xmlns="http://www.w3.org/2000/svg" xmlns:xlink="http://www.w3.org/1999/xlink">
	<desc>
			Created with Pixso.
	</desc>
	<defs/>
	<path id="Polygon 2" d="M166.919 57.8223L166.919 134.919L100.151 173.467L33.3838 134.919L33.3838 57.8223L100.151 19.2741L166.919 57.8223Z" fill="#009EFF" fill-opacity="1.000000" fill-rule="nonzero"/>
	<path id="Polygon 2" d="M100.151 182.232L174.51 139.301L174.51 53.4398L100.151 10.509L25.793 53.4398L25.793 139.301L100.151 182.232ZM166.919 134.919L166.919 57.8223L100.151 19.2741L33.3838 57.8223L33.3838 134.919L100.151 173.467L166.919 134.919Z" fill="#F7F7F7" fill-opacity="1.000000" fill-rule="evenodd"/>
	<path id="Vector" d="M86.5322 62.9998C89.7554 66.2231 91.0273 70.9661 89.8494 75.3756L98.0886 83.7311L89.0305 92.7881L80.7927 84.4323C76.377 85.6144 71.6255 84.3239 68.417 81.1152C63.4236 76.1219 63.4236 67.9952 68.417 62.9998C73.2517 58.1629 81.6934 58.1629 86.5322 62.9998ZM137.417 70.3678C137.302 69.5672 136.746 68.9 135.979 68.6436C135.216 68.3852 134.367 68.5873 133.794 69.1586L130.775 72.1796C129.161 73.7933 126.349 73.7933 124.735 72.1796C123.065 70.5098 123.066 67.8104 124.735 66.1418L127.754 63.1229C128.325 62.5516 128.525 61.7051 128.269 60.9379C128.012 60.1706 127.345 59.614 126.544 59.4994C122.56 58.9365 118.528 60.2749 115.678 63.1207C112.455 66.346 111.183 71.0871 112.361 75.4966L80.7957 107.061L80.7935 107.059C76.4006 105.893 71.6326 107.165 68.4197 110.378C65.5884 113.209 64.2334 117.273 64.7961 121.246C64.9109 122.047 65.4675 122.714 66.2346 122.97C66.9958 123.227 67.8464 123.027 68.4197 122.455L71.4387 119.434C73.0525 117.821 75.865 117.821 77.4785 119.434C79.1484 121.104 79.1475 123.803 77.4785 125.472L74.4597 128.491C73.8884 129.062 73.6882 129.909 73.9448 130.676C74.2012 131.443 74.8684 132 75.6689 132.115C79.6428 132.68 83.6414 131.385 86.5354 128.493C89.7585 125.268 91.0303 120.527 89.8525 116.117L121.418 84.5532L121.42 84.5553C125.836 85.725 130.581 84.449 133.794 81.2362C136.625 78.4049 137.98 74.3416 137.417 70.3678ZM82.9963 76.1533L84.2661 71.4164C84.4641 70.6805 84.2534 69.8945 83.7136 69.3546L80.2463 65.8875C79.7065 65.3475 78.9204 65.1348 78.1846 65.335L73.4478 66.6047C72.7119 66.8026 72.1365 67.3781 71.9382 68.114L70.6687 72.8508C70.4707 73.5869 70.6812 74.3727 71.2212 74.9127L74.6882 78.3798C75.2502 78.942 76.0542 79.1242 76.7502 78.9324L81.4871 77.6627C82.2229 77.4647 82.7983 76.8893 82.9963 76.1533ZM124.733 106.625C123.722 106.625 122.681 106.777 121.46 107.1L113.185 98.8267L104.125 107.885L112.399 116.159C112.076 117.383 111.923 118.423 111.923 119.434C111.923 126.498 117.669 132.244 124.733 132.244C131.796 132.244 137.542 126.498 137.542 119.434C137.542 112.371 131.796 106.625 124.733 106.625ZM131.738 119.007L130.469 123.744C130.27 124.48 129.695 125.055 128.959 125.253L124.222 126.523C123.526 126.715 122.722 126.533 122.16 125.97L118.693 122.503C118.153 121.963 117.943 121.177 118.141 120.441L119.41 115.705C119.609 114.969 120.184 114.393 120.92 114.195L125.657 112.925C126.388 112.721 127.177 112.938 127.719 113.478L131.186 116.945C131.726 117.485 131.936 118.271 131.738 119.007Z" fill="#FFFFFF" fill-opacity="1.000000" fill-rule="evenodd"/>
</svg>
