<svg width="90.000000" height="90.000000" viewBox="0 0 90 90" fill="none" xmlns="http://www.w3.org/2000/svg" xmlns:xlink="http://www.w3.org/1999/xlink">
	<desc>
			Created with Pixso.
	</desc>
	<defs/>
	<rect id="Frame 2" width="90.000000" height="90.000000" transform="matrix(-1 0 0 1 90 0)" fill="#FFFFFF" fill-opacity="0"/>
	<path id="Vector 1" d="M45 12.5L31.2954 12.5C22.3208 12.5 15.0454 19.7754 15.0454 28.75C15.0454 37.7246 22.3208 45 31.2954 45L66.25 45C75.2246 45 82.5 52.2754 82.5 61.25C82.5 70.2246 75.2246 77.5 66.25 77.5L49.5 77.5M44 77.5L33.5 77.5M51.5 12.5L63 12.5" stroke="#999999" stroke-opacity="1.000000" stroke-width="2.000000"/>
	<path id="Vector 2" d="M44 77.5L33.5 77.5M51.5 12.5L63 12.5" stroke="#009EFF" stroke-opacity="1.000000" stroke-width="2.000000"/>
	<circle id="Ellipse 3" r="11.250000" transform="matrix(-1 1 0 0 78.75 11.25)" fill="#F5F5F5" fill-opacity="1.000000"/>
	<circle id="Ellipse 3" r="10.250000" transform="matrix(-1 1 0 0 78.75 11.25)" stroke="#009EFF" stroke-opacity="1.000000" stroke-width="2.000000"/>
	<circle id="Ellipse 4" r="11.250000" transform="matrix(-1 1 0 0 18.75 78.75)" fill="#F5F5F5" fill-opacity="1.000000"/>
	<circle id="Ellipse 4" r="10.250000" transform="matrix(-1 1 0 0 18.75 78.75)" stroke="#009EFF" stroke-opacity="1.000000" stroke-width="2.000000"/>
</svg>
