<svg width="37" height="36" viewBox="0 0 37 36" fill="none" xmlns="http://www.w3.org/2000/svg">
	<path d="M18 8.66C12.85 8.66 8.66 12.85 8.66 17.99C8.66 23.14 12.85 27.33 18 27.33C23.14 27.33 27.33 23.14 27.33 17.99C27.33 12.85 23.14 8.66 18 8.66ZM18 25.99C13.58 25.99 10 22.41 10 17.99C10 13.58 13.58 10 18 10C22.41 10 25.99 13.58 25.99 17.99C25.99 22.41 22.41 25.99 18 25.99Z" fill="#CCC"/>
	<path d="M34.14 14L32.8 14C32.45 12.72 31.95 11.5 31.29 10.36L32.24 9.41C32.59 9.06 32.78 8.59 32.78 8.1C32.78 7.6 32.59 7.13 32.24 6.78L29.2 3.75C28.5 3.05 27.28 3.05 26.58 3.75L25.63 4.7C24.49 4.04 23.27 3.54 22 3.19L22 1.85C21.99 0.83 21.16 0 20.14 0L15.85 0C14.83 0 14 0.83 14 1.85L14 3.19C12.72 3.54 11.5 4.04 10.36 4.7L9.41 3.75C8.71 3.05 7.48 3.05 6.78 3.75L3.75 6.79C3.4 7.13 3.21 7.6 3.21 8.1C3.21 8.59 3.4 9.06 3.75 9.41L4.7 10.36C4.04 11.5 3.54 12.72 3.19 14L1.85 14C0.83 14 0 14.83 0 15.85L0 20.14C0 21.16 0.83 22 1.85 22L3.19 22C3.54 23.27 4.04 24.49 4.7 25.63L3.75 26.58C3.4 26.93 3.21 27.4 3.21 27.89C3.21 28.39 3.4 28.85 3.75 29.21L6.79 32.24C7.48 32.94 8.71 32.94 9.41 32.24L10.36 31.29C11.5 31.95 12.72 32.45 14 32.8L14 34.14C14 35.16 14.83 36 15.85 36L20.14 36C21.16 36 22 35.16 22 34.14L22 32.8C23.27 32.45 24.49 31.95 25.63 31.29L26.58 32.24C27.29 32.94 28.51 32.94 29.21 32.24L32.24 29.21C32.59 28.86 32.78 28.39 32.78 27.89C32.78 27.4 32.59 26.93 32.24 26.58L31.29 25.63C31.95 24.49 32.45 23.27 32.8 22L34.14 22C35.16 22 36 21.16 36 20.14L36 15.85C35.99 14.83 35.16 14 34.14 14ZM34.66 20.14C34.66 20.43 34.43 20.66 34.14 20.66L31.75 20.66L31.63 21.18C31.28 22.67 30.69 24.08 29.88 25.38L29.6 25.83L31.3 27.53C31.5 27.73 31.5 28.06 31.3 28.26L28.26 31.3C28.06 31.5 27.73 31.5 27.53 31.3L25.83 29.6L25.38 29.88C24.08 30.69 22.67 31.28 21.18 31.63L20.66 31.75L20.66 34.14C20.66 34.43 20.43 34.66 20.14 34.66L15.85 34.66C15.56 34.66 15.33 34.43 15.33 34.14L15.33 31.75L14.81 31.63C13.32 31.28 11.91 30.69 10.61 29.88L10.16 29.6L8.46 31.3C8.26 31.5 7.93 31.5 7.73 31.3L4.69 28.26C4.49 28.06 4.49 27.73 4.69 27.53L6.39 25.83L6.11 25.38C5.3 24.08 4.71 22.67 4.36 21.18L4.24 20.66L1.85 20.66C1.56 20.66 1.33 20.43 1.33 20.14L1.33 15.85C1.33 15.56 1.56 15.33 1.85 15.33L4.24 15.33L4.36 14.81C4.71 13.32 5.3 11.91 6.1 10.61L6.39 10.16L4.69 8.46C4.49 8.26 4.49 7.93 4.69 7.73L7.73 4.69C7.93 4.49 8.26 4.49 8.46 4.69L10.16 6.38L10.61 6.11C11.91 5.3 13.32 4.71 14.81 4.36L15.33 4.24L15.33 1.85C15.33 1.56 15.56 1.33 15.85 1.33L20.14 1.33C20.43 1.33 20.66 1.56 20.66 1.85L20.66 4.24L21.18 4.36C22.67 4.71 24.08 5.3 25.38 6.11L25.83 6.38L27.53 4.69C27.73 4.49 28.06 4.49 28.26 4.69L31.3 7.73C31.5 7.93 31.5 8.26 31.3 8.46L29.6 10.16L29.88 10.61C30.69 11.91 31.28 13.32 31.62 14.81L31.75 15.33L34.14 15.33C34.43 15.33 34.66 15.56 34.66 15.85L34.66 20.14L34.66 20.14Z" fill="#CCC"/>
	<path d="M18 11.33C14.32 11.33 11.33 14.32 11.33 17.99C11.33 21.67 14.32 24.66 18 24.66C21.67 24.66 24.66 21.67 24.66 17.99C24.66 14.32 21.67 11.33 18 11.33ZM18 23.33C15.05 23.33 12.66 20.94 12.66 17.99C12.66 15.05 15.05 12.66 18 12.66C20.94 12.66 23.33 15.05 23.33 17.99C23.33 20.93 20.94 23.33 18 23.33Z" fill="#CCC"/>
</svg>
