<svg width="42.000000" height="34.000000" viewBox="0 0 42 34" fill="none" xmlns="http://www.w3.org/2000/svg" xmlns:xlink="http://www.w3.org/1999/xlink">
	<desc>
			Created with Pixso.
	</desc>
	<defs>
		<clipPath id="clip125_1320">
			<rect id="Frame" width="42.000000" height="34.000000" fill="white" fill-opacity="0"/>
		</clipPath>
	</defs>
	<rect id="Frame" width="42.000000" height="34.000000" fill="#FFFFFF" fill-opacity="0"/>
	<g clip-path="url(#clip125_1320)">
		<path id="Vector" d="M25.96 11.86L25.96 9.08C25.96 8.67 25.68 8.39 25.26 8.39L16.86 8.39C16.44 8.39 16.16 8.67 16.16 9.08L16.16 11.86C16.16 12.28 16.44 12.55 16.86 12.55L25.26 12.55C25.68 12.55 25.96 12.28 25.96 11.86ZM24.56 11.16L17.56 11.16L17.56 9.78L24.56 9.78L24.56 11.16Z" fill="#CCCCCC" fill-opacity="1.000000" fill-rule="nonzero"/>
		<path id="Vector" d="M13.36 25.74C11.82 25.74 10.56 26.99 10.56 28.51C10.56 30.04 11.82 31.29 13.36 31.29C14.9 31.29 16.16 30.04 16.16 28.51C16.16 26.99 14.9 25.74 13.36 25.74ZM13.36 29.9C12.59 29.9 11.96 29.28 11.96 28.51C11.96 27.75 12.59 27.12 13.36 27.12C14.13 27.12 14.76 27.75 14.76 28.51C14.76 29.28 14.13 29.9 13.36 29.9Z" fill="#CCCCCC" fill-opacity="1.000000" fill-rule="nonzero"/>
		<path id="Vector" d="M28.76 25.74C27.22 25.74 25.96 26.99 25.96 28.51C25.96 30.04 27.22 31.29 28.76 31.29C30.3 31.29 31.56 30.04 31.56 28.51C31.56 26.99 30.3 25.74 28.76 25.74ZM28.76 29.9C27.99 29.9 27.36 29.28 27.36 28.51C27.36 27.75 27.99 27.12 28.76 27.12C29.53 27.12 30.16 27.75 30.16 28.51C30.16 29.28 29.53 29.9 28.76 29.9Z" fill="#CCCCCC" fill-opacity="1.000000" fill-rule="nonzero"/>
		<path id="Vector" d="M28.69 14.29C28.83 14.01 28.76 13.73 28.55 13.45C28.34 13.18 27.99 13.18 27.71 13.32L24.35 15.33C23.16 16.02 21.9 16.65 20.71 17.2C20.36 17.34 19.94 17.55 19.52 17.76C18.05 18.52 17.28 20.12 17.63 21.71C17.91 22.96 18.96 24 20.22 24.28C20.5 24.35 20.78 24.35 21.06 24.35C22.39 24.35 23.58 23.58 24.21 22.41C24.35 22.06 24.56 21.64 24.77 21.23C25.4 20.05 25.96 18.8 26.66 17.62L28.69 14.29ZM25.47 16.85C24.7 18.1 24.07 19.35 23.51 20.6C23.37 21.02 23.16 21.36 22.95 21.78C22.53 22.68 21.55 23.1 20.57 22.89C19.8 22.75 19.17 22.13 19.03 21.36C18.82 20.39 19.24 19.42 20.15 19.01C20.5 18.8 20.92 18.66 21.34 18.45C22.6 17.83 23.93 17.2 25.12 16.51L26.03 15.95L25.47 16.85Z" fill="#CCCCCC" fill-opacity="1.000000" fill-rule="nonzero"/>
		<path id="Vector" d="M40.56 13.18C40.56 13.13 40.54 13.08 40.52 13.04C40.51 12.99 40.48 12.95 40.46 12.91C39.41 10.42 37.88 8.18 36 6.28C35.97 6.24 35.94 6.2 35.9 6.17C35.87 6.13 35.83 6.1 35.79 6.08C31.99 2.36 26.79 0.06 21.06 0.06C18.32 0.06 15.7 0.59 13.29 1.55C13.25 1.56 13.2 1.57 13.15 1.59C13.11 1.61 13.07 1.63 13.03 1.66C10.52 2.7 8.25 4.21 6.34 6.08C6.3 6.1 6.26 6.13 6.22 6.17C6.19 6.2 6.16 6.24 6.13 6.28C2.38 10.05 0.06 15.21 0.06 20.88C0.06 25.6 1.6 30.11 4.61 33.79C4.75 33.99 4.96 34.06 5.17 34.06L36.95 34.06C37.16 34.06 37.37 33.99 37.51 33.79C40.52 30.11 42.06 25.6 42.06 20.88C42.06 18.16 41.53 15.56 40.56 13.18ZM36.67 32.68L5.52 32.68C4.58 31.47 3.79 30.17 3.17 28.8L5.1 28.03C5.45 27.89 5.59 27.47 5.45 27.12C5.31 26.78 4.89 26.64 4.54 26.78L2.65 27.54C1.94 25.64 1.55 23.63 1.48 21.57L6.36 21.57C6.78 21.57 7.06 21.3 7.06 20.88C7.06 20.46 6.78 20.19 6.36 20.19L1.48 20.19C1.56 18 2 15.9 2.76 13.95L4.68 14.77C4.75 14.84 4.89 14.84 4.96 14.84C5.24 14.84 5.45 14.7 5.59 14.43C5.73 14.08 5.59 13.66 5.24 13.52L3.3 12.69C4.18 10.84 5.34 9.14 6.74 7.65L8.18 9.08C8.32 9.22 8.46 9.29 8.67 9.29C8.88 9.29 9.02 9.22 9.16 9.08C9.44 8.81 9.44 8.39 9.16 8.11L7.72 6.68C9.29 5.23 11.09 4.03 13.07 3.15L13.85 5.06C13.92 5.34 14.2 5.48 14.48 5.48C14.55 5.48 14.62 5.48 14.76 5.41C15.11 5.27 15.25 4.85 15.11 4.5L14.35 2.63C16.24 1.94 18.26 1.54 20.36 1.46L20.36 6.31C20.36 6.72 20.64 7 21.06 7C21.48 7 21.76 6.72 21.76 6.31L21.76 1.46C23.97 1.54 26.09 1.99 28.06 2.74L27.22 4.64C27.08 4.99 27.22 5.41 27.57 5.54C27.64 5.61 27.78 5.61 27.85 5.61C28.13 5.61 28.41 5.41 28.48 5.2L29.32 3.27C31.2 4.14 32.91 5.3 34.41 6.68L32.96 8.11C32.68 8.39 32.68 8.81 32.96 9.08C33.1 9.22 33.24 9.29 33.45 9.29C33.59 9.29 33.8 9.22 33.94 9.08L35.39 7.65C36.85 9.21 38.06 11 38.95 12.96L37.02 13.73C36.67 13.87 36.53 14.29 36.67 14.64C36.74 14.91 37.02 15.05 37.3 15.05C37.37 15.05 37.44 14.98 37.58 14.98L39.47 14.22C40.17 16.1 40.58 18.1 40.65 20.19L35.76 20.19C35.34 20.19 35.06 20.46 35.06 20.88C35.06 21.3 35.34 21.57 35.76 21.57L40.65 21.57C40.57 23.74 40.14 25.84 39.39 27.82L37.44 26.99C37.09 26.85 36.67 26.99 36.53 27.33C36.39 27.68 36.53 28.1 36.88 28.24L38.85 29.08C38.26 30.34 37.53 31.55 36.67 32.68Z" fill="#CCCCCC" fill-opacity="1.000000" fill-rule="nonzero"/>
	</g>
</svg>
