<svg width="100.000000" height="100.000000" viewBox="0 0 100 100" fill="none" xmlns="http://www.w3.org/2000/svg" xmlns:xlink="http://www.w3.org/1999/xlink">
	<desc>
			Created with Pixso.
	</desc>
	<defs>
		<clipPath id="clip125_894">
			<rect id="172557_speedometer_icon 2" width="100.000000" height="100.000000" fill="white" fill-opacity="0"/>
		</clipPath>
	</defs>
	<rect id="172557_speedometer_icon 2" width="100.000000" height="100.000000" fill="#FFFFFF" fill-opacity="0"/>
	<g clip-path="url(#clip125_894)">
		<path id="Vector" d="M42 56C42 60.416 45.5781 64 50 64C54.4219 64 58 60.416 58 56C58 51.582 54.4219 48 50 48C45.5781 48 42 51.584 42 56Z" stroke="#009EFF" stroke-opacity="1.000000" stroke-width="2.000000" stroke-linejoin="round"/>
		<path id="Vector" d="M89.918 82.6758C92.6313 78.6201 94.7437 74.1289 96.1274 69.3281C97.3467 65.0972 98 60.626 98 56C98 54.8794 97.9619 53.7681 97.8862 52.667C97.6504 49.2207 97.0513 45.8745 96.1274 42.667C95.6353 40.959 95.0508 39.2905 94.3804 37.667C94.0308 36.8213 93.6582 35.9878 93.2627 35.167C92.6021 33.7959 91.8779 32.4614 91.0947 31.167C82.688 17.2761 67.436 8 50 8C23.4722 8 2 29.4722 2 56C2 65.8721 4.97607 75.042 10.0742 82.6641" stroke="#999999" stroke-opacity="1.000000" stroke-width="2.000000" stroke-linejoin="round" stroke-linecap="round"/>
		<path id="Vector" d="M92.5298 50.6387C92.3906 49.6216 92.2129 48.6167 91.9985 47.625C91.7983 46.6997 91.5664 45.7861 91.3037 44.8853C90.8833 43.4443 90.3843 42.0366 89.8115 40.667M86 78.6387C86.3467 78.127 86.6816 77.6069 87.0049 77.0791C87.5898 76.124 88.1362 75.1431 88.6416 74.1387C89.293 72.8433 89.8765 71.5083 90.3872 70.1387C90.7251 69.2329 91.0312 68.3125 91.3037 67.3774C91.5664 66.4771 91.7983 65.564 91.9985 64.6387C92.1768 63.8145 92.3296 62.981 92.4561 62.1387C92.6143 61.0864 92.7314 60.0215 92.8062 58.9443C92.8706 58.0156 92.9033 57.0786 92.9033 56.1333" stroke="#009EFF" stroke-opacity="1.000000" stroke-width="2.000000" stroke-linejoin="round"/>
		<path id="Vector" d="M86.5566 35.0649C86.0806 34.1553 85.5732 33.27 85.0356 32.4097C84.5342 31.6064 84.0063 30.8252 83.4541 30.0669C82.5703 28.8535 81.624 27.6982 80.6211 26.6035" stroke="#009EFF" stroke-opacity="1.000000" stroke-width="2.000000" stroke-linejoin="round" stroke-linecap="round"/>
		<path id="Vector 5" d="M45.3804 49.4565L77.9893 33.6958L55.7065 61.6851" stroke="#009EFF" stroke-opacity="1.000000" stroke-width="2.000000"/>
	</g>
</svg>
