<svg width="37.000000" height="37.000000" viewBox="0 0 37 37" fill="none" xmlns="http://www.w3.org/2000/svg" xmlns:xlink="http://www.w3.org/1999/xlink">
	<desc>
			Created with Pixso.
	</desc>
	<defs>
		<clipPath id="clip259_6014">
			<rect id="Frame" width="37.000000" height="37.000000" fill="white" fill-opacity="0"/>
		</clipPath>
	</defs>
	<rect id="Frame" width="37.000000" height="37.000000" fill="#FFFFFF" fill-opacity="0"/>
	<g clip-path="url(#clip259_6014)">
		<path id="Vector" d="M35.8428 3.36829L33.604 1.14465C32.1445 -0.304993 29.6841 -0.389526 28.1201 0.956787L24.1865 4.34387C24.1362 4.38721 24.0923 4.43854 24.0581 4.49493L20.228 10.8312L17.7686 11.6448C17.5605 11.7135 17.4043 11.8848 17.353 12.0958C17.3022 12.3068 17.3662 12.5301 17.521 12.684L24.2236 19.3397C24.3433 19.4589 24.5044 19.5233 24.6704 19.5233C24.7188 19.5233 24.7671 19.5175 24.8149 19.5067C25.0283 19.4568 25.1997 19.3007 25.269 19.094L26.0889 16.6507L32.562 12.7686C32.6187 12.7346 32.6704 12.6913 32.7134 12.6414L36.043 8.80914C37.3926 7.25909 37.3027 4.81793 35.8428 3.36829ZM35.0884 7.99042L31.8242 11.7468L25.2378 15.6968C25.1089 15.7741 25.0122 15.8941 24.9648 16.0357L24.3945 17.7347L22.8838 16.2344L22.8833 16.2337L20.6494 14.0152L20.6484 14.0145L19.1382 12.5142L20.8486 11.9476C20.9922 11.9 21.1128 11.8038 21.1904 11.6752L25.0894 5.22626L28.9478 1.90491C30.021 0.980652 31.7095 1.03772 32.7104 2.0321L34.9492 4.25574C35.9512 5.25079 36.0132 6.9259 35.0884 7.99042Z" fill="#999999" fill-opacity="1.000000" fill-rule="nonzero"/>
		<path id="Vector" d="M34.0518 25.2149C32.1963 23.3729 29.4663 22.7319 26.9922 23.529L13.564 10.1923C14.3657 7.73529 13.7212 5.02319 11.8662 3.18115C9.91211 1.24005 6.98633 0.632324 4.41162 1.63464C4.21289 1.71198 4.06738 1.88324 4.02393 2.09064C3.98047 2.29803 4.04492 2.5127 4.1958 2.66296L8.21484 6.65497L5.53467 9.3172L1.51514 5.32452C1.36426 5.17493 1.14746 5.1106 0.938965 5.15399C0.72998 5.19733 0.557617 5.34186 0.479492 5.53918C-0.528809 8.09521 0.0825195 11.001 2.03662 12.9427C3.89209 14.7849 6.62207 15.4258 9.09619 14.6295L14.1177 19.6165L7.86426 25.827L3.88721 28.0355C3.77637 28.0969 3.68701 28.1901 3.63037 28.3029L1.84326 31.8525C1.72168 32.0939 1.76904 32.3859 1.96191 32.5766L4.1958 34.7952C4.31738 34.9159 4.47852 34.9788 4.64258 34.9788C4.73828 34.9788 4.83545 34.957 4.9248 34.9122L8.49902 33.1374C8.6123 33.0811 8.70605 32.9921 8.76807 32.8823L10.9917 28.9323L17.2451 22.7225L22.5249 27.9661C21.7227 30.4231 22.3677 33.1345 24.2231 34.9773C25.5518 36.2969 27.3301 37 29.1411 37C29.9937 37 30.854 36.8439 31.6777 36.5238C31.876 36.4465 32.0215 36.2752 32.0654 36.0677C32.1089 35.8604 32.0444 35.6458 31.8936 35.4954L27.874 31.5035L30.5547 28.8412L34.5742 32.8332C34.7246 32.9828 34.9419 33.0471 35.1504 33.0037C35.3594 32.9604 35.5317 32.8158 35.6099 32.6185C36.6172 30.0618 36.0063 27.156 34.0518 25.2149ZM10.0361 28.1063C9.99463 28.1475 9.95996 28.193 9.93164 28.2436L7.76025 32.1011L4.76758 33.5876L3.17773 32.0086L4.67432 29.0363L8.55859 26.8799C8.60938 26.8517 8.65625 26.8171 8.69678 26.7759L15.0117 20.5039L16.3521 21.8351L10.0361 28.1063ZM34.7163 31.1992L31.0015 27.5101C30.7549 27.2651 30.3545 27.2651 30.1079 27.5101L26.5337 31.0598C26.4155 31.1776 26.3491 31.3373 26.3491 31.5035C26.3491 31.6697 26.416 31.8294 26.5337 31.9472L30.2485 35.6364C28.4067 35.9999 26.4751 35.4384 25.1167 34.0898C23.5171 32.5015 23.0171 30.1239 23.8423 28.0319C23.9341 27.7999 23.8789 27.5354 23.7012 27.3591L9.70752 13.4609C9.58643 13.3409 9.42529 13.2773 9.26074 13.2773C9.18359 13.2773 9.10498 13.2918 9.02979 13.3207C6.92432 14.1402 4.52979 13.6437 2.93018 12.0554C1.57178 10.7062 1.00635 8.78748 1.37305 6.95844L5.08789 10.6476C5.33447 10.8926 5.73438 10.8926 5.98145 10.6476L9.55518 7.0979C9.80225 6.85297 9.80225 6.45551 9.55518 6.21051L5.84082 2.52136C7.68262 2.1571 9.61426 2.71936 10.9727 4.06781C12.5723 5.65625 13.0718 8.03375 12.2471 10.1259C12.1553 10.3578 12.2104 10.6223 12.3882 10.7986L26.3818 24.6968C26.5596 24.8731 26.8257 24.928 27.0591 24.837C29.1655 24.0175 31.5596 24.514 33.1592 26.1024C34.5166 27.4515 35.082 29.3702 34.7163 31.1992Z" fill="#999999" fill-opacity="1.000000" fill-rule="nonzero"/>
	</g>
</svg>
