<svg width="49" height="34" viewBox="0 0 49 34" fill="none" xmlns="http://www.w3.org/2000/svg">
	<path d="M16.24 11.99L17.74 11.99C17.74 8.27 20.77 5.24 24.5 5.24L24.5 3.74C19.94 3.74 16.24 7.44 16.24 11.99Z" fill="#CCCCCC"/>
	<path d="M37.5 24.75L36.75 24.75L36.75 11.99C36.75 5.24 31.25 -0.26 24.5 -0.26C17.74 -0.26 12.24 5.24 12.24 11.99L12.24 24.75L11.49 24.75C9.97 24.75 8.74 25.98 8.74 27.5L8.74 33.25L40.25 33.25L40.25 27.5C40.25 25.98 39.02 24.75 37.5 24.75ZM13.74 11.99C13.74 6.06 18.57 1.24 24.5 1.24C30.42 1.24 35.25 6.06 35.25 11.99L35.25 24.75L13.74 24.75L13.74 11.99ZM38.75 28.25L31.2 28.25L31.2 29.75L38.75 29.75L38.75 31.75L10.24 31.75L10.24 29.75L18.29 29.75L18.29 28.25L10.24 28.25L10.24 27.5C10.24 26.81 10.8 26.25 11.49 26.25L37.5 26.25C38.19 26.25 38.75 26.81 38.75 27.5L38.75 28.25L38.75 28.25Z" fill="#CCCCCC"/>
	<path d="M44.39 4.18L43.33 5.24C48.88 10.8 48.88 19.84 43.33 25.4L44.39 26.46C50.53 20.31 50.53 10.32 44.39 4.18Z" fill="#CCCCCC"/>
	<path d="M41.44 7.12L40.38 8.18C44.31 12.12 44.31 18.52 40.38 22.45L41.44 23.51C45.96 18.99 45.96 11.64 41.44 7.12Z" fill="#CCCCCC"/>
	<path d="M5.66 5.24L4.6 4.18C-1.54 10.32 -1.54 20.31 4.6 26.46L5.66 25.4C0.11 19.84 0.11 10.79 5.66 5.24Z" fill="#CCCCCC"/>
	<path d="M8.61 8.18L7.55 7.12C3.03 11.64 3.03 18.99 7.55 23.51L8.61 22.45C4.68 18.52 4.68 12.12 8.61 8.18Z" fill="#CCCCCC"/>
	<path d="M26.75 22.57L26.75 19.01C27.66 18.33 28.25 17.24 28.25 16.02C28.25 13.95 26.56 12.26 24.5 12.26C22.43 12.26 20.74 13.95 20.74 16.02C20.74 17.24 21.33 18.33 22.24 19.01L22.24 22.57L20.49 22.57L20.49 24.07L28.5 24.07L28.5 22.57L26.75 22.57ZM25.25 22.57L23.74 22.57L23.74 19.69C23.99 19.74 24.24 19.77 24.5 19.77C24.75 19.77 25 19.74 25.25 19.69L25.25 22.57ZM24.5 18.27C23.25 18.27 22.24 17.26 22.24 16.02C22.24 14.78 23.25 13.77 24.5 13.77C25.74 13.77 26.75 14.78 26.75 16.02C26.75 17.26 25.74 18.27 24.5 18.27Z" fill="#CCCCCC"/>
	<path d="M20.49 28.25L21.99 28.25L21.99 29.75L20.49 29.75L20.49 28.25Z" fill="#CCCCCC"/>
	<path d="M27.5 28.25L29 28.25L29 29.75L27.5 29.75L27.5 28.25Z" fill="#CCCCCC"/>
	<path d="M24 28.25L25.5 28.25L25.5 29.75L24 29.75L24 28.25Z" fill="#CCCCCC"/>
</svg>
