<svg width="36.000000" height="35.000000" viewBox="0 0 36 35" fill="none" xmlns="http://www.w3.org/2000/svg" xmlns:xlink="http://www.w3.org/1999/xlink">
	<desc>
			Created with Pixso.
	</desc>
	<defs>
		<clipPath id="clip125_1254">
			<rect id="Frame" width="36.000000" height="35.000000" fill="white" fill-opacity="0"/>
		</clipPath>
	</defs>
	<rect id="Frame" width="36.000000" height="35.000000" fill="#FFFFFF" fill-opacity="0"/>
	<g clip-path="url(#clip125_1254)">
		<path id="Vector" d="M24.23 5.89C22.32 3.97 19.79 2.92 17.1 2.92C14.41 2.92 11.88 3.97 9.98 5.89C6.05 9.84 6.05 16.28 9.98 20.24C11.88 22.15 14.41 23.21 17.1 23.21C19.79 23.21 22.32 22.15 24.23 20.24C28.15 16.28 28.15 9.84 24.23 5.89ZM23.36 19.37C21.69 21.05 19.47 21.98 17.1 21.98C14.73 21.98 12.51 21.05 10.84 19.37C7.38 15.89 7.38 10.23 10.84 6.75C12.51 5.07 14.73 4.14 17.1 4.14C19.47 4.14 21.69 5.07 23.36 6.75C26.82 10.23 26.82 15.89 23.36 19.37Z" fill="#CCCCCC" fill-opacity="1.000000" fill-rule="nonzero"/>
		<path id="Vector" d="M22.34 7.79C20.94 6.38 19.08 5.6 17.1 5.6C15.12 5.6 13.26 6.38 11.86 7.79C11.62 8.03 11.62 8.42 11.86 8.65C12.1 8.89 12.49 8.89 12.72 8.65C13.89 7.48 15.45 6.83 17.1 6.83C18.75 6.83 20.31 7.48 21.48 8.65C21.6 8.77 21.75 8.83 21.91 8.83C22.07 8.83 22.22 8.77 22.34 8.65C22.58 8.42 22.58 8.03 22.34 7.79Z" fill="#CCCCCC" fill-opacity="1.000000" fill-rule="nonzero"/>
		<path id="Vector" d="M13.37 30.17L0.6 30.17C0.27 30.17 0 30.44 0 30.78L0 34.38C0 34.72 0.27 34.99 0.6 34.99L3.25 34.99C3.58 34.99 3.86 34.72 3.86 34.38C3.86 34.04 3.58 33.77 3.25 33.77L1.21 33.77L1.21 31.39L12.76 31.39L12.76 33.77L7.19 33.77C6.85 33.77 6.58 34.04 6.58 34.38C6.58 34.72 6.85 34.99 7.19 34.99L13.37 34.99C13.7 34.99 13.98 34.72 13.98 34.38L13.98 30.78C13.98 30.44 13.7 30.17 13.37 30.17Z" fill="#CCCCCC" fill-opacity="1.000000" fill-rule="nonzero"/>
		<path id="Vector" d="M35.82 27.83L30.61 22.6C30.38 22.36 29.99 22.36 29.75 22.6L29.46 22.9L27.58 21.01C30.63 16.89 31.06 11.24 28.49 6.68C28.33 6.38 27.96 6.28 27.66 6.45C27.37 6.61 27.27 6.99 27.43 7.28C29.87 11.62 29.33 17.04 26.18 20.81C26.17 20.83 26.16 20.84 26.15 20.85C26.11 20.9 26.06 20.95 26.02 21C26 21.02 25.99 21.04 25.97 21.06C25.93 21.1 25.89 21.15 25.85 21.19C25.83 21.22 25.8 21.24 25.77 21.27C25.74 21.31 25.7 21.35 25.67 21.39C25.64 21.42 25.61 21.45 25.58 21.47C25.55 21.51 25.52 21.54 25.48 21.58C25.34 21.72 25.19 21.86 25.04 22C25.03 22 25.03 22.01 25.02 22.02C22.77 24.05 19.93 25.07 17.09 25.06C14.05 25.06 11.01 23.9 8.69 21.58C6.45 19.32 5.22 16.33 5.22 13.14C5.22 9.96 6.45 6.96 8.69 4.71C13.32 0.06 20.85 0.06 25.48 4.71C25.72 4.95 26.11 4.95 26.34 4.71C26.58 4.47 26.58 4.08 26.34 3.84C21.24 -1.29 12.94 -1.29 7.83 3.84C5.36 6.33 4 9.63 4 13.14C4 14.82 4.31 16.44 4.9 17.95L0.6 17.95C0.27 17.95 0 18.23 0 18.57L0 22.17C0 22.5 0.27 22.78 0.6 22.78L8.18 22.78C8.65 23.21 9.14 23.61 9.65 23.97L0.6 23.97C0.27 23.97 0 24.24 0 24.58L0 28.18C0 28.52 0.27 28.79 0.6 28.79L22.45 28.79C22.79 28.79 23.06 28.52 23.06 28.18L23.06 24.85C23.71 24.51 24.34 24.12 24.93 23.67L26.81 25.56L26.51 25.86C26.4 25.97 26.33 26.13 26.33 26.29C26.33 26.45 26.4 26.61 26.51 26.72L31.72 31.96C31.83 32.07 31.99 32.14 32.15 32.14C32.31 32.14 32.46 32.07 32.58 31.96L35.82 28.7C36.05 28.46 36.05 28.07 35.82 27.83ZM1.21 21.55L1.21 19.18L5.45 19.18C5.89 20.02 6.41 20.82 7.03 21.55L1.21 21.55ZM21.84 27.57L1.21 27.57L1.21 25.19L11.53 25.19C11.6 25.19 11.68 25.18 11.75 25.15C13.44 25.91 15.27 26.29 17.09 26.29C18.7 26.29 20.32 25.99 21.84 25.4L21.84 27.57ZM25.88 22.89C25.94 22.83 26 22.78 26.06 22.72C26.08 22.7 26.09 22.69 26.11 22.68C26.19 22.6 26.27 22.52 26.35 22.44C26.38 22.41 26.41 22.38 26.44 22.35C26.47 22.31 26.51 22.27 26.55 22.23C26.58 22.19 26.62 22.16 26.66 22.12C26.69 22.08 26.72 22.05 26.75 22.02C26.77 22 26.78 21.98 26.8 21.96L28.59 23.76L27.67 24.69L25.88 22.89ZM32.15 30.66L27.8 26.29L28.1 25.99C28.1 25.99 28.1 25.99 28.1 25.99L29.89 24.2C29.89 24.2 29.89 24.2 29.89 24.2L30.18 23.9L34.52 28.27L32.15 30.66Z" fill="#CCCCCC" fill-opacity="1.000000" fill-rule="nonzero"/>
	</g>
</svg>
