<svg width="39" height="35" viewBox="0 0 39 35" fill="none" xmlns="http://www.w3.org/2000/svg">
  <defs>
    <clipPath id="clip125_1341">
      <rect width="39" height="35" fill-opacity="0"/>
    </clipPath>
  </defs>
  <rect width="39" height="35" fill-opacity="0"/>
  <g clip-path="url(#clip125_1341)">
    <path d="M27.77 27.03C28.1 26.69 28.1 26.13 27.77 25.8C27.43 25.46 26.88 25.46 26.55 25.8L20.36 32.03L20.36 11.45C20.36 10.97 19.98 10.58 19.5 10.58C19.03 10.58 18.63 10.97 18.63 11.45L18.63 32.03L12.45 25.8C12.11 25.46 11.57 25.46 11.23 25.8C10.9 26.13 10.9 26.69 11.23 27.03L18.89 34.75C19.22 35.08 19.77 35.08 20.11 34.75L27.77 27.03ZM16.89 20.84C17.35 20.84 17.74 21.22 17.74 21.7C17.74 22.18 17.35 22.58 16.89 22.58L8.64 22.58C6.26 22.58 4.1 21.6 2.54 20.02C0.96 18.44 0 16.26 0 13.86C0 11.46 0.96 9.29 2.54 7.71C4.1 6.14 6.26 5.15 8.64 5.15C9.22 5.15 9.79 5.21 10.35 5.34C10.67 5.4 10.98 5.47 11.27 5.57C12.18 3.98 13.49 2.65 15.04 1.68C16.75 0.61 18.77 0 20.93 0C23.89 0 26.59 1.16 28.59 3.06C30.4 4.77 31.63 7.06 32.01 9.64C32.19 9.62 32.39 9.62 32.57 9.62C34.34 9.62 35.96 10.34 37.11 11.51C38.29 12.68 39 14.31 39 16.09C39 17.89 38.29 19.5 37.11 20.68C35.95 21.85 34.34 22.58 32.57 22.58L22.12 22.58C21.64 22.58 21.26 22.18 21.26 21.7C21.26 21.22 21.64 20.84 22.12 20.84L32.57 20.84C33.87 20.84 35.05 20.31 35.89 19.45C36.75 18.59 37.27 17.41 37.27 16.09C37.27 14.79 36.75 13.59 35.89 12.74C35.05 11.88 33.87 11.35 32.57 11.35C32.38 11.35 32.18 11.36 32.01 11.39C31.83 11.4 31.64 11.44 31.48 11.47C31.42 11.49 31.36 11.5 31.3 11.51C30.82 11.54 30.42 11.17 30.38 10.69C30.24 8.19 29.13 5.94 27.42 4.33C25.72 2.71 23.43 1.73 20.93 1.73C19.1 1.73 17.39 2.26 15.95 3.16C14.44 4.08 13.24 5.42 12.44 7.02C12.23 7.43 11.76 7.61 11.33 7.44C10.91 7.26 10.48 7.12 10.02 7.02C9.58 6.94 9.13 6.89 8.64 6.89C6.73 6.89 5 7.67 3.75 8.93C2.5 10.2 1.72 11.94 1.72 13.86C1.72 15.79 2.5 17.53 3.75 18.8C5 20.05 6.73 20.84 8.64 20.84L16.89 20.84Z" fill="#CCCCCC"/>
  </g>
</svg>
