<svg width="36" height="34" viewBox="0 0 36 34" fill="none" xmlns="http://www.w3.org/2000/svg">
	<defs>
		<clipPath id="c">
			<rect width="36" height="34" fill="none"/>
		</clipPath>
	</defs>
	<g clip-path="url(#c)">
		<path d="M25.34 30.37C25.02 30.29 24.69 30.49 24.61 30.81L24.01 33.24C23.93 33.57 24.13 33.89 24.45 33.98C24.5 33.99 24.55 33.99 24.6 33.99C24.86 33.99 25.11 33.81 25.18 33.54L25.78 31.11C25.86 30.78 25.66 30.45 25.34 30.37Z" fill="#CCC"/>
		<path d="M18 18.21C18.07 18.21 18.15 18.19 18.22 18.16L24.82 15.4C25.13 15.27 25.28 14.92 25.15 14.61C25.02 14.3 24.67 14.15 24.37 14.28L18 16.95L1.2 9.91L1.2 9.71C1.2 9.37 0.93 9.1 0.6 9.1C0.26 9.1 0 9.37 0 9.71L0 10.32C0 10.56 0.14 10.78 0.37 10.88L17.77 18.16C17.84 18.19 17.92 18.21 18 18.21Z" fill="#CCC"/>
		<path d="M25.13 24.43C24.99 24.13 24.63 24 24.33 24.15C23.19 24.72 21.29 25.39 18.6 25.48L18.6 20.03C18.6 19.7 18.33 19.42 18 19.42C17.66 19.42 17.39 19.7 17.39 20.03L17.39 25.47C9.95 25.23 7.54 20.66 7.2 19.9L7.2 15.78C7.2 15.45 6.93 15.17 6.6 15.17C6.26 15.17 6 15.45 6 15.78L6 20.03C6 20.11 6.01 20.18 6.04 20.26C6.14 20.52 8.7 26.71 18 26.71C21.25 26.71 23.52 25.91 24.86 25.24C25.16 25.09 25.28 24.73 25.13 24.43Z" fill="#CCC"/>
		<path d="M27 30.96C26.66 30.96 26.39 31.23 26.39 31.57L26.39 33.39C26.39 33.72 26.66 34 27 34C27.33 34 27.6 33.72 27.6 33.39L27.6 31.57C27.6 31.23 27.33 30.96 27 30.96Z" fill="#CCC"/>
		<path d="M35.39 9.1C35.06 9.1 34.79 9.37 34.79 9.71L34.79 9.91L27.6 12.91L27.6 11.81L35.62 8.45C35.85 8.36 36 8.13 36 7.89C36 7.64 35.85 7.42 35.62 7.33L18.22 0.04C18.08 -0.02 17.91 -0.02 17.77 0.04L0.37 7.33C0.14 7.42 0 7.64 0 7.89C0 8.13 0.14 8.35 0.37 8.45L17.77 15.73C17.84 15.76 17.92 15.78 18 15.78C18.07 15.78 18.15 15.77 18.22 15.73L24.52 13.1C24.82 12.97 24.97 12.62 24.84 12.31C24.72 12 24.36 11.85 24.06 11.98L18 14.52L2.16 7.89L18 1.26L33.83 7.89L26.94 10.77L20.34 8.28C20.37 8.15 20.39 8.02 20.39 7.89C20.39 6.87 19.34 6.07 18 6.07C16.65 6.07 15.6 6.87 15.6 7.89C15.6 8.91 16.65 9.71 18 9.71C18.6 9.71 19.13 9.54 19.55 9.28L26.39 11.86L26.39 13.81L26.39 13.81L26.39 26.82C25.7 27.07 25.2 27.74 25.2 28.53C25.2 29.54 26 30.35 27 30.35C27.99 30.35 28.79 29.54 28.79 28.53C28.79 27.74 28.29 27.07 27.6 26.82L27.6 23.37C29.32 22.06 29.93 20.31 29.96 20.23C29.98 20.16 30 20.1 30 20.03L30 15.78C30 15.45 29.73 15.17 29.39 15.17C29.06 15.17 28.79 15.45 28.79 15.78L28.79 19.92C28.69 20.18 28.33 20.97 27.6 21.75L27.6 14.22L35.62 10.88C35.85 10.79 36 10.56 36 10.32L36 9.71C36 9.37 35.73 9.1 35.39 9.1ZM18 8.5C17.26 8.5 16.79 8.14 16.79 7.89C16.79 7.64 17.26 7.28 18 7.28C18.73 7.28 19.2 7.64 19.2 7.89C19.2 8.14 18.73 8.5 18 8.5ZM27 29.14C26.66 29.14 26.39 28.87 26.39 28.53C26.39 28.2 26.66 27.92 27 27.92C27.33 27.92 27.6 28.2 27.6 28.53C27.6 28.87 27.33 29.14 27 29.14Z" fill="#CCC"/>
		<path d="M29.38 30.81C29.3 30.49 28.97 30.29 28.65 30.37C28.33 30.45 28.13 30.78 28.21 31.11L28.81 33.54C28.88 33.81 29.13 33.99 29.39 33.99C29.44 33.99 29.49 33.99 29.54 33.98C29.86 33.89 30.06 33.57 29.98 33.24L29.38 30.81Z" fill="#CCC"/>
	</g>
</svg>
