<svg width="100.000000" height="100.000000" viewBox="0 0 100 100" fill="none" xmlns="http://www.w3.org/2000/svg" xmlns:xlink="http://www.w3.org/1999/xlink">
	<desc>
			Created with Pixso.
	</desc>
	<defs>
		<clipPath id="clip125_969">
			<rect id="172557_speedometer_icon 3" width="100.000000" height="100.000000" fill="white" fill-opacity="0"/>
		</clipPath>
	</defs>
	<rect id="172557_speedometer_icon 3" width="100.000000" height="100.000000" fill="#FFFFFF" fill-opacity="0"/>
	<g clip-path="url(#clip125_969)">
		<path id="Ellipse 10" d="M50 87.8911Q61.5107 87.8911 71.0469 81.502Q80.6206 75.1138 85.0015 64.5Q89.4121 53.8691 87.1582 42.6104Q84.9209 31.3257 76.7935 23.2075L78.2065 21.7925Q86.7642 30.3403 89.1191 42.2178Q91.4932 54.0737 86.8501 65.2627Q82.2368 76.4395 72.1602 83.1636Q62.1191 89.8911 50 89.8911L50 87.8911Z" fill="#009EFF" fill-opacity="1.000000" fill-rule="evenodd"/>
		<path id="Ellipse 13" d="M68.9458 17.1855Q60.1338 12.0981 50.001 12.1089L49.999 10.1089Q60.6689 10.0977 69.9458 15.4536L68.9458 17.1855Z" fill="#009EFF" fill-opacity="1.000000" fill-rule="evenodd"/>
		<circle id="Ellipse 7" cx="50.000000" cy="50.000000" r="44.000000" stroke="#999999" stroke-opacity="1.000000" stroke-width="2.000000"/>
		<circle id="Ellipse 12" cx="50.000000" cy="50.000000" r="4.000000" fill="#999999" fill-opacity="1.000000"/>
		<rect id="Rectangle 15" x="49.000000" y="18.000000" rx="1.000000" width="2.000000" height="32.000000" fill="#999999" fill-opacity="1.000000"/>
		<rect id="Rectangle 16" x="49.000000" y="50.731934" rx="1.000000" width="2.000000" height="24.961060" transform="rotate(-60 49.000000 50.731934)" fill="#999999" fill-opacity="1.000000"/>
	</g>
</svg>
