<svg width="22.000000" height="22.000000" viewBox="0 0 22 22" fill="none" xmlns="http://www.w3.org/2000/svg" xmlns:xlink="http://www.w3.org/1999/xlink">
	<desc>
			Created with Pixso.
	</desc>
	<defs>
		<clipPath id="clip195_2542">
			<rect id="instagram (12) 1" width="22.000000" height="22.000000" fill="white" fill-opacity="0"/>
		</clipPath>
	</defs>
	<rect id="instagram (12) 1" width="22.000000" height="22.000000" fill="#FFFFFF" fill-opacity="0"/>
	<g clip-path="url(#clip195_2542)">
		<path id="Vector" d="M11.2163 22.0004C11.1436 22.0004 11.0708 22.0004 10.9976 22.0001C9.27295 22.0042 7.67969 21.9604 6.12988 21.8661C4.70947 21.7797 3.4126 21.2887 2.37988 20.4465C1.38281 19.6337 0.702637 18.5349 0.356934 17.1807C0.0561523 16.0017 0.0400391 14.8444 0.0249023 13.725C0.0136719 12.9219 0.00244141 11.9702 0 11.0024C0.00244141 10.0306 0.0136719 9.07886 0.0249023 8.2757C0.0400391 7.15649 0.0561523 5.99921 0.356934 4.82007C0.702637 3.46588 1.38281 2.367 2.37988 1.55426C3.4126 0.712036 4.70947 0.221069 6.13037 0.134644C7.67969 0.0404663 9.27344 -0.003479 11.0015 0.000671387C12.7266 -0.00299072 14.3193 0.0404663 15.8691 0.134644C17.2896 0.221069 18.5864 0.712036 19.6196 1.55426C20.6162 2.367 21.2969 3.46588 21.6421 4.82007C21.9429 5.99902 21.959 7.15649 21.9741 8.2757C21.9854 9.07886 21.9971 10.0306 21.999 10.9984L21.999 11.0024C21.9971 11.9702 21.9854 12.9219 21.9741 13.725C21.959 14.8442 21.9434 16.0015 21.6421 17.1807C21.2969 18.5349 20.6162 19.6337 19.6196 20.4465C18.5864 21.2887 17.2896 21.7797 15.8691 21.8661C14.3853 21.9564 12.8608 22.0004 11.2163 22.0004ZM10.9976 20.2813C12.6938 20.2853 14.2515 20.2425 15.7646 20.1505C16.8389 20.0853 17.7705 19.7366 18.5332 19.1144C19.2388 18.5392 19.7241 17.7456 19.9771 16.7557C20.2275 15.7743 20.2417 14.7205 20.2559 13.7015C20.2666 12.9037 20.2778 11.9588 20.2803 11.0004C20.2778 10.0418 20.2666 9.09698 20.2559 8.29919C20.2417 7.28021 20.2275 6.2265 19.9771 5.24493C19.7241 4.25494 19.2388 3.46136 18.5332 2.88617C17.7705 2.2641 16.8389 1.91547 15.7646 1.85022C14.2515 1.75806 12.6938 1.71558 11.0015 1.7193C9.30566 1.71527 7.74756 1.75806 6.23438 1.85022C5.16016 1.91547 4.229 2.2641 3.46582 2.88617C2.76074 3.46136 2.2749 4.25494 2.02246 5.24493C1.77197 6.2265 1.75732 7.28003 1.74365 8.29919C1.73242 9.09766 1.72119 10.0432 1.71875 11.0024C1.72119 11.9575 1.73242 12.9031 1.74365 13.7015C1.75732 14.7205 1.77197 15.7743 2.02246 16.7557C2.2749 17.7456 2.76074 18.5392 3.46582 19.1144C4.229 19.7365 5.16016 20.0851 6.23438 20.1504C7.74756 20.2425 9.30566 20.2855 10.9976 20.2813ZM10.9565 16.3715C7.99512 16.3715 5.58545 13.962 5.58545 11.0004C5.58545 8.0387 7.99512 5.62927 10.9565 5.62927C13.918 5.62927 16.3276 8.0387 16.3276 11.0004C16.3276 13.962 13.918 16.3715 10.9565 16.3715ZM10.9565 7.34802C8.94287 7.34802 7.3042 8.98657 7.3042 11.0004C7.3042 13.0142 8.94287 14.6527 10.9565 14.6527C12.9707 14.6527 14.6089 13.0142 14.6089 11.0004C14.6089 8.98657 12.9707 7.34802 10.9565 7.34802ZM16.9292 3.91052C16.2173 3.91052 15.6401 4.48761 15.6401 5.19958C15.6401 5.91162 16.2173 6.48865 16.9292 6.48865C17.6411 6.48865 18.2183 5.91162 18.2183 5.19958C18.2183 4.48761 17.6411 3.91052 16.9292 3.91052Z" fill="#FFFFFF" fill-opacity="1.000000" fill-rule="nonzero"/>
	</g>
</svg>
