<svg width="90.000000" height="90.000000" viewBox="0 0 90 90" fill="none" xmlns="http://www.w3.org/2000/svg" xmlns:xlink="http://www.w3.org/1999/xlink">
	<desc>
			Created with Pixso.
	</desc>
	<defs>
		<clipPath id="clip125_925">
			<rect id="2578125_ampoule_bulb_electricity_light_icon 1" width="90.000000" height="90.000000" fill="white" fill-opacity="0"/>
		</clipPath>
	</defs>
	<rect id="2578125_ampoule_bulb_electricity_light_icon 1" width="90.000000" height="90.000000" fill="#FFFFFF" fill-opacity="0"/>
	<g clip-path="url(#clip125_925)">
		<path id="Vector" d="M61.6924 57.417C60.4697 58.3442 59.4722 59.5352 58.7734 60.9009C58.0747 62.2666 57.6929 63.7725 57.6562 65.3062" stroke="#009EFF" stroke-opacity="1.000000" stroke-width="2.000000" stroke-linejoin="round" stroke-linecap="round"/>
		<path id="Vector" d="M49.2188 80.1562C49.2188 80.9023 48.9224 81.6177 48.395 82.145C47.8677 82.6724 47.1523 82.9688 46.4062 82.9688L43.5938 82.9688C42.8477 82.9688 42.1323 82.6724 41.605 82.145C41.0776 81.6177 40.7812 80.9023 40.7812 80.1562L40.7812 76.5845C41.6357 77.0801 42.606 77.3423 43.5938 77.3438L46.4062 77.3438C47.394 77.3423 48.3643 77.0801 49.2188 76.5845L49.2188 80.1562Z" stroke="#999999" stroke-opacity="1.000000" stroke-width="2.000000" stroke-linejoin="round"/>
		<path id="Vector" d="M52.0312 71.7188C52.0312 73.2104 51.4385 74.6411 50.3838 75.6963C49.3286 76.751 47.8979 77.3438 46.4062 77.3438L43.5938 77.3438C42.1021 77.3438 40.6714 76.751 39.6162 75.6963C38.5615 74.6411 37.9688 73.2104 37.9688 71.7188L37.9688 66.0938L52.0312 66.0938L52.0312 71.7188Z" stroke="#999999" stroke-opacity="1.000000" stroke-width="2.000000" stroke-linejoin="round"/>
		<path id="Vector" d="M64.0659 45.584C62.6938 48.4814 60.6797 51.0278 58.1763 53.0298C56.2949 54.4824 54.7651 56.3408 53.7012 58.4663C52.6372 60.5918 52.0664 62.9297 52.0312 65.3066L52.0312 66.0938L37.9688 66.0938L37.9688 65.3066C37.9941 63.0073 37.4897 60.7334 36.4946 58.6602C35.5 56.5874 34.041 54.7715 32.231 53.3535C29.3828 51.1865 27.1323 48.3311 25.6919 45.0552C24.2515 41.7793 23.668 38.1904 23.9971 34.627C24.3257 31.0635 25.5557 27.6421 27.5713 24.6846C29.5864 21.7275 32.3213 19.3318 35.5181 17.7227C38.7148 16.1138 42.2681 15.3445 45.8438 15.4875C49.4199 15.6304 52.9004 16.6809 55.9585 18.5398C59.0166 20.3987 61.5513 23.0054 63.3242 26.1138C65.0977 29.2227 66.0503 32.731 66.0938 36.3096C66.1313 39.5151 65.438 42.6865 64.0659 45.584Z" stroke="#999999" stroke-opacity="1.000000" stroke-width="2.000000" stroke-linejoin="round"/>
		<path id="Vector" d="M42.1875 66.0938L42.1875 49.2188" stroke="#999999" stroke-opacity="1.000000" stroke-width="2.000000" stroke-linejoin="round" stroke-linecap="round"/>
		<path id="Vector" d="M47.8125 66.0938L47.8125 49.2188" stroke="#999999" stroke-opacity="1.000000" stroke-width="2.000000" stroke-linejoin="round" stroke-linecap="round"/>
		<path id="Vector" d="M42.1875 49.2188L33.75 40.7812" stroke="#999999" stroke-opacity="1.000000" stroke-width="2.000000" stroke-linejoin="round" stroke-linecap="round"/>
		<path id="Vector" d="M47.8125 49.2188L56.25 40.7812" stroke="#999999" stroke-opacity="1.000000" stroke-width="2.000000" stroke-linejoin="round" stroke-linecap="round"/>
		<path id="Vector" d="M36.5625 21.9517C39.126 20.4656 42.0371 19.6846 45 19.6875" stroke="#009EFF" stroke-opacity="1.000000" stroke-width="2.000000" stroke-linejoin="round" stroke-linecap="round"/>
		<path id="Vector" d="M28.125 36.5625C28.1255 32.7773 29.3984 29.1025 31.7393 26.1279" stroke="#009EFF" stroke-opacity="1.000000" stroke-width="2.000000" stroke-linejoin="round" stroke-linecap="round"/>
		<path id="Vector" d="M45 11.25L45 5.625" stroke="#009EFF" stroke-opacity="1.000000" stroke-width="2.000000" stroke-linejoin="round" stroke-linecap="round"/>
		<path id="Vector" d="M27.0981 18.6609L23.1187 14.6812" stroke="#009EFF" stroke-opacity="1.000000" stroke-width="2.000000" stroke-linejoin="round" stroke-linecap="round"/>
		<path id="Vector" d="M19.6875 36.5625L14.0625 36.5625" stroke="#009EFF" stroke-opacity="1.000000" stroke-width="2.000000" stroke-linejoin="round" stroke-linecap="round"/>
		<path id="Vector" d="M70.3125 36.5625L75.9375 36.5625" stroke="#009EFF" stroke-opacity="1.000000" stroke-width="2.000000" stroke-linejoin="round" stroke-linecap="round"/>
		<path id="Vector" d="M62.9014 18.6609L66.8809 14.6812" stroke="#009EFF" stroke-opacity="1.000000" stroke-width="2.000000" stroke-linejoin="round" stroke-linecap="round"/>
		<path id="Vector" d="M37.9688 70.3125L52.0312 70.3125" stroke="#999999" stroke-opacity="1.000000" stroke-width="2.000000" stroke-linejoin="round" stroke-linecap="round"/>
	</g>
</svg>
