<svg width="174.000000" height="51.000000" viewBox="0 0 174 51" fill="none" xmlns="http://www.w3.org/2000/svg" xmlns:xlink="http://www.w3.org/1999/xlink">
	<desc>
			Created with Pixso.
	</desc>
	<defs>
		<clipPath id="clip136_6967">
			<rect id="segway 2" width="174.000000" height="50.727276" fill="white" fill-opacity="0"/>
		</clipPath>
	</defs>
	<g opacity="0.200000">
		<rect id="segway 2" width="174.000000" height="50.727276" fill="#FFFFFF" fill-opacity="0"/>
		<g clip-path="url(#clip136_6967)">
			<path id="path2908" d="M33.21 0C29.84 0 27.09 2.74 27.09 6.08C27.09 9.43 29.84 12.11 33.21 12.11C36.57 12.11 39.27 9.43 39.27 6.08C39.27 2.74 36.57 0 33.21 0ZM8.16 13.49C7.15 13.49 6.33 14.31 6.33 15.32C6.33 16.33 7.15 17.15 8.16 17.15L28.13 17.15C28.81 17.11 30.8 17.27 31.69 18.42C32.64 19.64 32.2 21.78 31.69 23.35C31.69 23.35 25.9 41.83 25.46 43.21C24.54 46.17 21.66 48.02 18.89 46.81C16.61 45.81 16.46 43.65 17.23 41.55C17.33 41.29 17.45 41.1 17.56 40.88C17.56 40.88 22.53 31.58 23.62 28.99C24.43 27.09 23.39 25.78 20.89 25.78L9.54 25.78C8.52 25.78 7.71 26.59 7.71 27.61C7.71 28.62 8.52 29.43 9.54 29.43L12.77 29.43C13.45 29.4 15.49 29.48 16.27 30.71C17.74 32.98 16.73 33.72 14.55 41.28C14.41 41.67 14.29 42.08 14.21 42.5C14.21 42.5 12.71 47.78 17.49 49.97C21.91 51.98 27.04 49.83 28.56 45.04C29.63 41.67 35.18 24.46 35.18 24.46C36.31 20.95 36.13 18.15 34.57 16.16C32.43 13.42 28.59 13.48 28.01 13.5L8.16 13.5L8.16 13.49ZM1.83 19.53C0.81 19.53 0 20.35 0 21.36C0 22.37 0.81 23.23 1.83 23.23L25.31 23.23C26.33 23.23 27.15 22.37 27.15 21.36C27.15 20.35 26.33 19.53 25.31 19.53L1.83 19.53Z" fill="#FFFFFF" fill-opacity="1.000000" fill-rule="nonzero"/>
			<path id="path2922" d="M60.48 12.01C57.63 12.01 52.55 12.36 52.55 15.07C52.55 19.02 61.09 19.05 61.09 21.31C61.09 22 60.38 22.61 58.78 22.61C56.54 22.61 55.28 22.48 53.21 22.13C52.34 21.98 52.04 23.66 52.77 23.84C54.12 24.19 56.24 24.49 60.05 24.49C62.9 24.49 67.87 23.99 67.87 21.26C67.87 17.31 59.38 17.29 59.38 15.19C59.38 14.5 60.1 13.89 61.7 13.89L67.09 13.89C68.19 13.89 68.19 12.01 67.09 12.01L60.48 12.01ZM80.71 12.01C77.61 12.01 72.38 12.19 72.38 16.37L72.38 20.18C72.38 24.37 77.61 24.54 80.71 24.54C83.99 24.54 85.75 24.24 87.1 23.89C87.84 23.71 87.53 22.02 86.66 22.18C84.59 22.52 83.34 22.66 81.09 22.66C79 22.66 78.45 22.19 78.45 20.94L78.45 19.49C78.45 18.99 78.57 18.9 79.11 18.9L83.35 18.9C84.18 18.9 84.18 17.29 83.35 17.29L79.11 17.29C78.57 17.29 78.45 17.19 78.45 16.7L78.45 15.62C78.45 14.36 79 13.9 81.09 13.9L86.44 13.9C87.53 13.9 87.53 12.02 86.44 12.02L80.71 12.02L80.71 12.01ZM99.83 12.01C96.73 12.01 91.5 12.19 91.5 16.37L91.5 20.35C91.5 24.24 96.51 24.44 99.61 24.44C102.24 24.44 107.98 24.31 107.98 20.67L107.98 19.49C107.98 18 106.99 17.6 105.01 17.6L100.65 17.6C100.06 17.6 100.06 19.21 100.65 19.21L101.98 19.21C102.52 19.21 102.59 19.32 102.59 19.8L102.59 20.82C102.59 22.08 101.39 22.75 99.61 22.75C97.83 22.75 97.19 22.07 97.19 20.82L97.19 15.6C97.19 14.34 98.12 13.88 100.21 13.88L105.56 13.88C106.66 13.88 106.66 12 105.56 12L99.83 12L99.83 12.01ZM111.34 12.01C110.59 12.01 110.6 12.31 110.79 12.92L113.98 22.39C114.41 23.56 115.35 24.32 117.18 24.32C119.01 24.32 119.89 23.54 120.32 22.5C120.32 22.5 121.58 18.8 121.81 18.14C121.95 17.69 122.32 17.69 122.47 18.14C122.65 18.71 123.91 22.39 123.91 22.39C124.52 23.62 125.18 24.32 127.04 24.32C129.25 24.32 130.2 23.45 130.57 22.39C130.81 21.73 132.5 16.08 133.55 12.81C133.76 12.17 133.7 12.01 133.11 12.01L131.18 12.01C130.57 14 128.72 19.99 128.64 20.24C128.51 20.7 128.16 20.69 127.98 20.24C127.86 19.93 125.78 14.38 125.45 13.52C125.1 12.66 124.15 12.02 123.07 12.02C122.1 12.02 121.19 12.54 120.87 13.52C120.55 14.5 118.81 19.98 118.72 20.24C118.58 20.7 118.2 20.7 118.06 20.24C117.96 19.97 116.06 13.92 115.46 12.01L111.34 12.01ZM145.23 12.01C142.23 12.01 137.46 11.98 137.46 15.61L137.46 23.14C137.46 23.89 138.04 24.32 139.99 24.32C141.95 24.32 142.53 23.8 142.53 23.14L142.53 19.69C142.53 19.2 142.65 19.1 143.19 19.1L147.16 19.1C147.7 19.1 147.83 19.21 147.83 19.69L147.83 23.14C147.83 23.8 148.4 24.32 150.36 24.32C152.32 24.32 152.89 23.9 152.89 23.14L152.89 15.61C152.89 11.98 148.23 12.01 145.23 12.01ZM156.2 12.01C155.71 12.01 155.5 12.37 155.87 12.81C157.11 14.32 160.03 17.89 160.22 18.14C160.47 18.44 160.83 18.86 160.83 19.33L160.83 23.15C160.83 23.81 161.46 24.34 163.42 24.34C165.38 24.34 166.06 23.92 166.06 23.15L166.06 19.01C166.06 18.51 166.4 18.25 166.67 17.93C166.86 17.67 169.62 14.37 170.91 12.81C171.28 12.36 171.08 12.01 170.58 12.01L168.27 12.01C168.27 12.01 165.3 15.8 165.07 16.1C164.83 16.4 164.37 16.39 164.13 16.1C163.9 15.81 161.05 12.01 161.05 12.01L156.2 12.01ZM172.84 12.01C172.2 12.01 171.68 12.52 171.68 13.14C171.68 13.75 172.2 14.26 172.84 14.26C173.47 14.26 174 13.75 174 13.14C174 12.51 173.48 12.01 172.84 12.01ZM172.84 12.27C173.31 12.27 173.72 12.68 173.72 13.14C173.72 13.59 173.31 13.94 172.84 13.94C172.37 13.94 172.02 13.59 172.02 13.14C172.02 12.68 172.37 12.27 172.84 12.27ZM172.35 12.7C172.31 12.7 172.3 12.72 172.3 12.75L172.3 13.45C172.3 13.5 172.34 13.5 172.46 13.5C172.59 13.5 172.62 13.48 172.62 13.45L172.62 12.86C172.62 12.82 172.63 12.81 172.67 12.81L172.83 12.81C172.94 12.81 172.99 12.87 172.99 12.92C172.99 13 172.85 13.03 172.72 13.03L172.67 13.03C172.61 13.03 172.62 13.21 172.67 13.24C172.8 13.35 172.93 13.46 173 13.51C173.02 13.53 173.07 13.51 173.11 13.51L173.44 13.51C173.48 13.51 173.48 13.48 173.44 13.46L173 13.14C173.11 13.14 173.44 13.15 173.44 12.92C173.44 12.76 173.23 12.7 172.95 12.7L172.35 12.7ZM145.23 13.62C147.26 13.62 147.83 14.14 147.83 15.39L147.83 16.89C147.83 17.42 147.72 17.48 147.22 17.48L143.2 17.48C142.66 17.48 142.54 17.37 142.54 16.89L142.54 15.39C142.54 14.14 143.2 13.62 145.23 13.62Z" fill="#FFFFFF" fill-opacity="1.000000" fill-rule="nonzero"/>
			<path id="California" d="M58.48 30.26Q57.48 30.26 56.85 30.74Q56.69 30.86 56.55 31.03Q55.88 31.79 55.88 33.2Q55.88 34.57 56.56 35.33L56.56 35.33Q56.58 35.36 56.61 35.39Q56.8 35.58 57.02 35.73Q57.68 36.16 58.63 36.16C59.07 36.16 59.45 36.1 59.76 35.98C60.07 35.86 60.37 35.73 60.66 35.57C60.84 35.73 60.98 35.91 61.08 36.13C61.19 36.34 61.24 36.58 61.24 36.87C61.24 37.31 60.99 37.7 60.49 38.01Q59.76 38.47 58.23 38.47C57.5 38.47 56.82 38.37 56.17 38.16C55.53 37.95 54.97 37.64 54.49 37.21Q53.77 36.56 53.34 35.57Q52.93 34.58 52.93 33.2Q52.93 31.93 53.32 30.96Q53.73 29.98 54.42 29.31Q54.68 29.06 54.97 28.86Q55.47 28.51 56.06 28.29Q56.99 27.95 58.05 27.95Q59.56 27.95 60.38 28.44C60.93 28.77 61.21 29.19 61.21 29.7Q61.21 30.06 61.06 30.33Q61.03 30.38 61 30.44C60.86 30.64 60.69 30.81 60.51 30.93C60.22 30.74 59.92 30.58 59.59 30.45Q59.12 30.26 58.48 30.26ZM94.77 33.2Q94.77 31.93 95.16 30.94C95.43 30.29 95.8 29.74 96.26 29.31C96.73 28.86 97.27 28.52 97.89 28.29C98.53 28.06 99.21 27.95 99.94 27.95C100.67 27.95 101.35 28.06 101.97 28.29C102.6 28.52 103.15 28.86 103.62 29.31C104.09 29.74 104.46 30.29 104.72 30.94C104.99 31.6 105.13 32.35 105.13 33.2C105.13 34.05 105 34.81 104.73 35.48C104.47 36.13 104.11 36.68 103.64 37.13C103.18 37.57 102.63 37.9 102 38.13C101.37 38.36 100.68 38.47 99.94 38.47C99.2 38.47 98.51 38.36 97.88 38.13C97.24 37.89 96.7 37.54 96.24 37.1C95.78 36.65 95.42 36.1 95.16 35.44Q94.77 34.46 94.77 33.2ZM109.61 34.97L109.61 38.11C109.49 38.14 109.3 38.18 109.04 38.21Q108.66 38.26 108.29 38.26C108.04 38.26 107.81 38.24 107.62 38.19C107.43 38.16 107.27 38.09 107.14 38C107.02 37.9 106.93 37.76 106.86 37.59Q106.76 37.33 106.76 36.9L106.76 29.19C106.76 28.96 106.82 28.79 106.94 28.67Q107.14 28.47 107.47 28.36C107.84 28.23 108.27 28.13 108.76 28.08C109.25 28.01 109.78 27.98 110.33 27.98Q112.59 27.98 113.74 28.93C114.5 29.56 114.88 30.42 114.88 31.5Q114.88 32.34 114.52 32.98Q114.45 33.11 114.36 33.23C114.01 33.71 113.59 34.09 113.11 34.35Q113.7 35.15 114.28 35.85C114.66 36.32 114.96 36.75 115.18 37.13C115.07 37.51 114.86 37.81 114.57 38.01C114.29 38.21 113.96 38.31 113.6 38.31C113.36 38.31 113.16 38.28 112.98 38.23C112.81 38.17 112.66 38.09 112.52 38C112.39 37.9 112.27 37.78 112.16 37.64C112.06 37.5 111.95 37.34 111.85 37.18L110.48 34.97L109.61 34.97ZM65.12 28.55Q65.4 28.39 65.96 28.24C66.34 28.15 66.72 28.1 67.1 28.1C67.65 28.1 68.13 28.18 68.54 28.34C68.97 28.5 69.24 28.74 69.36 29.08C69.56 29.65 69.77 30.31 70 31.06Q70.34 32.19 70.68 33.4C70.91 34.19 71.14 34.99 71.36 35.77C71.57 36.55 71.76 37.23 71.93 37.83C71.8 37.99 71.6 38.11 71.34 38.19Q70.95 38.34 70.41 38.34C70.14 38.34 69.92 38.32 69.74 38.27C69.56 38.23 69.41 38.17 69.29 38.08C69.18 37.99 69.09 37.88 69.02 37.73C68.95 37.59 68.89 37.43 68.84 37.24L68.54 36.11L65.58 36.11C65.49 36.44 65.41 36.78 65.32 37.13C65.23 37.48 65.14 37.82 65.06 38.14C64.9 38.2 64.74 38.24 64.56 38.27C64.4 38.32 64.2 38.34 63.96 38.34C63.4 38.34 62.99 38.25 62.72 38.06C62.45 37.87 62.32 37.6 62.32 37.26C62.32 37.11 62.35 36.96 62.39 36.8C62.43 36.65 62.48 36.47 62.54 36.26C62.61 35.97 62.72 35.6 62.85 35.17C62.99 34.73 63.14 34.26 63.31 33.76Q63.55 32.99 63.83 32.19C64.01 31.65 64.19 31.15 64.35 30.68C64.52 30.2 64.66 29.78 64.79 29.41C64.94 29.04 65.04 28.75 65.12 28.55ZM74.79 38.23C74.32 38.23 73.95 38.09 73.68 37.82C73.41 37.54 73.27 37.17 73.27 36.7L73.27 28.24C73.39 28.22 73.58 28.19 73.84 28.16C74.1 28.12 74.36 28.1 74.6 28.1C74.85 28.1 75.06 28.12 75.25 28.16C75.45 28.19 75.61 28.26 75.74 28.36Q75.76 28.37 75.78 28.39Q75.95 28.53 76.04 28.77C76.1 28.94 76.13 29.17 76.13 29.46L76.13 35.92L79.88 35.92C79.96 36.04 80.03 36.2 80.09 36.41C80.16 36.61 80.19 36.81 80.19 37.03C80.19 37.47 80.1 37.78 79.91 37.96Q79.86 38.01 79.81 38.05L79.81 38.05Q79.55 38.23 79.18 38.23L74.79 38.23ZM134.94 28.55C135.12 28.45 135.4 28.34 135.77 28.24C136.16 28.15 136.54 28.1 136.92 28.1C137.46 28.1 137.94 28.18 138.36 28.34C138.78 28.5 139.06 28.74 139.18 29.08C139.37 29.65 139.59 30.31 139.82 31.06C140.04 31.81 140.27 32.59 140.5 33.4C140.73 34.19 140.96 34.99 141.17 35.77C141.39 36.55 141.58 37.23 141.75 37.83Q141.55 38.06 141.16 38.19Q140.76 38.34 140.22 38.34C139.96 38.34 139.74 38.32 139.55 38.27C139.38 38.23 139.23 38.17 139.11 38.08C139 37.99 138.91 37.88 138.83 37.73C138.77 37.59 138.71 37.43 138.65 37.24L138.36 36.11L135.4 36.11C135.31 36.44 135.22 36.78 135.14 37.13C135.05 37.48 134.96 37.82 134.87 38.14C134.72 38.2 134.56 38.24 134.38 38.27C134.22 38.32 134.02 38.34 133.78 38.34C133.22 38.34 132.81 38.25 132.53 38.06C132.27 37.87 132.14 37.6 132.14 37.26C132.14 37.11 132.16 36.96 132.21 36.8C132.25 36.65 132.3 36.47 132.35 36.26C132.43 35.97 132.53 35.6 132.66 35.17C132.81 34.73 132.96 34.26 133.12 33.76C133.29 33.25 133.46 32.72 133.65 32.19C133.83 31.65 134.01 31.15 134.17 30.68C134.33 30.2 134.48 29.78 134.61 29.41C134.75 29.04 134.86 28.75 134.94 28.55ZM84.52 38.11C84.4 38.14 84.21 38.18 83.95 38.21Q83.57 38.26 83.2 38.26Q82.82 38.26 82.53 38.19C82.34 38.16 82.18 38.09 82.05 38C81.92 37.9 81.82 37.76 81.76 37.59C81.69 37.41 81.66 37.18 81.66 36.9L81.66 28.26C81.78 28.24 81.97 28.21 82.23 28.18C82.49 28.13 82.74 28.11 82.98 28.11C83.24 28.11 83.45 28.13 83.64 28.18C83.84 28.21 84 28.28 84.13 28.37C84.26 28.47 84.36 28.61 84.42 28.78C84.49 28.96 84.52 29.19 84.52 29.47L84.52 38.11ZM125.72 37.83C125.57 37.99 125.34 38.1 125.05 38.18C124.77 38.26 124.42 38.31 124.02 38.31C123.61 38.31 123.23 38.25 122.87 38.13C122.51 38.01 122.22 37.72 121.99 37.26L120.37 33.96C120.21 33.62 120.06 33.3 119.93 33.01C119.8 32.7 119.65 32.35 119.5 31.96L119.4 31.97Q119.47 32.86 119.47 33.77C119.48 34.39 119.49 34.99 119.49 35.57L119.49 38.11C119.37 38.14 119.18 38.18 118.93 38.21C118.69 38.24 118.45 38.26 118.21 38.26C117.97 38.26 117.76 38.24 117.57 38.21C117.39 38.18 117.23 38.11 117.11 38.01C116.99 37.91 116.9 37.78 116.83 37.62C116.77 37.45 116.74 37.22 116.74 36.95L116.74 28.77C116.89 28.55 117.12 28.39 117.44 28.28Q117.91 28.11 118.45 28.11C118.86 28.11 119.24 28.18 119.6 28.31C119.97 28.43 120.27 28.71 120.48 29.16L122.12 32.47C122.28 32.8 122.43 33.13 122.56 33.43C122.69 33.73 122.83 34.07 122.99 34.46L123.07 34.45C123.03 33.86 123 33.27 122.99 32.68Q122.97 31.8 122.97 30.91L122.97 28.26C123.09 28.23 123.27 28.19 123.51 28.16C123.76 28.13 124.01 28.11 124.25 28.11Q124.97 28.11 125.34 28.37C125.59 28.54 125.72 28.89 125.72 29.42L125.72 37.83ZM130.71 38.11C130.59 38.14 130.39 38.18 130.13 38.21Q129.76 38.26 129.38 38.26C129.13 38.26 128.91 38.24 128.71 38.19C128.52 38.16 128.37 38.09 128.24 38C128.1 37.9 128 37.76 127.94 37.59C127.87 37.41 127.84 37.18 127.84 36.9L127.84 28.26C127.96 28.24 128.15 28.21 128.41 28.18C128.68 28.13 128.93 28.11 129.17 28.11C129.42 28.11 129.64 28.13 129.82 28.18C130.02 28.21 130.18 28.28 130.31 28.37Q130.33 28.39 130.35 28.41L130.35 28.41Q130.52 28.55 130.61 28.78C130.67 28.96 130.71 29.19 130.71 29.47L130.71 38.11ZM93.62 28.26C93.69 28.38 93.76 28.54 93.81 28.75C93.88 28.95 93.91 29.15 93.91 29.37C93.91 29.8 93.82 30.1 93.63 30.29C93.46 30.46 93.22 30.55 92.91 30.55L89.48 30.55L89.48 32.4L93.06 32.4C93.15 32.52 93.22 32.68 93.27 32.87C93.34 33.07 93.37 33.28 93.37 33.5C93.37 33.91 93.28 34.21 93.09 34.4C92.92 34.57 92.68 34.66 92.37 34.66L89.51 34.66L89.51 38.11C89.39 38.14 89.2 38.18 88.94 38.21Q88.56 38.26 88.18 38.26Q87.81 38.26 87.51 38.19C87.33 38.16 87.17 38.09 87.04 38C86.91 37.9 86.81 37.76 86.74 37.59C86.68 37.41 86.64 37.18 86.64 36.9L86.64 29.78C86.64 29.31 86.78 28.94 87.05 28.67C87.33 28.4 87.7 28.26 88.17 28.26L93.62 28.26ZM97.71 33.2C97.71 34.19 97.91 34.94 98.32 35.43C98.72 35.92 99.26 36.16 99.94 36.16C100.63 36.16 101.17 35.92 101.58 35.43C101.98 34.94 102.18 34.19 102.18 33.2C102.18 32.22 101.98 31.48 101.58 30.99Q101.35 30.71 101.06 30.54Q100.59 30.26 99.96 30.26C99.28 30.26 98.73 30.5 98.32 30.99C97.91 31.47 97.71 32.21 97.71 33.2ZM110.64 32.79C111.06 32.79 111.38 32.69 111.62 32.48C111.86 32.26 111.98 31.95 111.98 31.53C111.98 31.12 111.85 30.81 111.58 30.6C111.31 30.38 110.89 30.27 110.32 30.27C110.15 30.27 110.02 30.28 109.92 30.29C109.82 30.3 109.72 30.32 109.6 30.34L109.6 32.79L110.64 32.79ZM67.08 30.67C66.93 31.12 66.76 31.64 66.56 32.2C66.38 32.76 66.21 33.33 66.05 33.91L68.08 33.91C67.93 33.32 67.77 32.74 67.61 32.19Q67.38 31.34 67.18 30.67L67.08 30.67ZM136.9 30.67C136.75 31.12 136.58 31.64 136.38 32.2C136.19 32.76 136.02 33.33 135.87 33.91L137.9 33.91C137.75 33.32 137.59 32.74 137.43 32.19C137.27 31.62 137.13 31.11 137 30.67L136.9 30.67Z" fill="#FFFFFF" fill-opacity="1.000000" fill-rule="evenodd"/>
		</g>
	</g>
</svg>
