<svg width="25.000000" height="35.000000" viewBox="0 0 25 35" fill="none" xmlns="http://www.w3.org/2000/svg" xmlns:xlink="http://www.w3.org/1999/xlink">
	<desc>
			Created with Pixso.
	</desc>
	<defs>
		<clipPath id="clip259_6017">
			<rect id="Frame" width="25.000000" height="35.000000" fill="white" fill-opacity="0"/>
		</clipPath>
	</defs>
	<rect id="Frame" width="25.000000" height="35.000000" fill="#FFFFFF" fill-opacity="0"/>
	<g clip-path="url(#clip259_6017)">
		<path id="Vector" d="M24.3125 0L0.6875 0C0.308105 0 0 0.312378 0 0.697266L0 34.3027C0 34.6876 0.308105 35 0.6875 35L18.6514 35C18.8335 35 19.0088 34.9261 19.1377 34.7956L24.7983 29.0534C24.9272 28.9229 25 28.7451 25 28.5605L25 0.697266C25 0.312378 24.6919 0 24.3125 0ZM19.3379 32.6211L19.335 29.2537L22.6548 29.2571L19.3379 32.6211ZM23.625 27.8633L18.6475 27.8585L18.647 27.8585C18.4648 27.8585 18.2896 27.9323 18.1611 28.0629C18.0322 28.1942 17.9595 28.3712 17.9595 28.5565L17.9644 33.6055L1.375 33.6055L1.375 1.39453L23.625 1.39453L23.625 27.8633Z" fill="#999999" fill-opacity="1.000000" fill-rule="nonzero"/>
		<path id="Vector" d="M7.04248 25.1549C5.31396 25.1549 3.9082 26.5809 3.9082 28.3343C3.9082 30.0877 5.31445 31.5137 7.04248 31.5137C8.77148 31.5137 10.1772 30.0877 10.1772 28.3343C10.1777 26.5809 8.77148 25.1549 7.04248 25.1549ZM7.04248 30.1199C6.07227 30.1199 5.28223 29.3187 5.28223 28.3343C5.28223 27.3499 6.07129 26.5494 7.04248 26.5494C8.01367 26.5494 8.80273 27.3499 8.80273 28.3343C8.80273 29.3187 8.01318 30.1199 7.04248 30.1199Z" fill="#999999" fill-opacity="1.000000" fill-rule="nonzero"/>
		<path id="Vector" d="M16.0054 27.7491L12.2246 27.7491C11.8452 27.7491 11.5371 28.0615 11.5371 28.4464C11.5371 28.8313 11.8452 29.1437 12.2246 29.1437L16.0054 29.1437C16.3848 29.1437 16.6929 28.8313 16.6929 28.4464C16.6929 28.0615 16.3853 27.7491 16.0054 27.7491Z" fill="#999999" fill-opacity="1.000000" fill-rule="nonzero"/>
		<path id="Vector" d="M6.79443 4.18286L4.80176 4.18286C4.42236 4.18286 4.11426 4.49524 4.11426 4.88013C4.11426 5.26501 4.42236 5.57739 4.80176 5.57739L6.79492 5.57739C7.1748 5.57739 7.48242 5.26501 7.48242 4.88013C7.48242 4.49524 7.1748 4.18286 6.79443 4.18286Z" fill="#999999" fill-opacity="1.000000" fill-rule="nonzero"/>
		<path id="Vector" d="M20.4731 4.18286L14.4937 4.18286C14.1143 4.18286 13.8062 4.49524 13.8062 4.88013C13.8062 5.26501 14.1143 5.57739 14.4937 5.57739L20.4731 5.57739C20.8525 5.57739 21.1606 5.26501 21.1606 4.88013C21.1606 4.49524 20.8525 4.18286 20.4731 4.18286Z" fill="#999999" fill-opacity="1.000000" fill-rule="nonzero"/>
		<path id="Vector" d="M20.4731 7.18115L10.3003 7.18115C9.9209 7.18115 9.61279 7.49353 9.61279 7.87842C9.61279 8.26331 9.9209 8.57568 10.3003 8.57568L20.4731 8.57568C20.8525 8.57568 21.1606 8.26331 21.1606 7.87842C21.1606 7.49353 20.8525 7.18115 20.4731 7.18115Z" fill="#999999" fill-opacity="1.000000" fill-rule="nonzero"/>
		<path id="Vector" d="M20.5078 12.6888L4.49268 12.6888C4.11328 12.6888 3.80518 13.0012 3.80518 13.3861C3.80518 13.771 4.11328 14.0834 4.49268 14.0834L20.5078 14.0834C20.8872 14.0834 21.1953 13.771 21.1953 13.3861C21.1953 13.0012 20.8872 12.6888 20.5078 12.6888Z" fill="#999999" fill-opacity="1.000000" fill-rule="nonzero"/>
		<path id="Vector" d="M20.5078 15.0596L4.49268 15.0596C4.11328 15.0596 3.80518 15.3719 3.80518 15.7568C3.80518 16.1417 4.11328 16.4541 4.49268 16.4541L20.5078 16.4541C20.8872 16.4541 21.1953 16.1417 21.1953 15.7568C21.1953 15.3719 20.8872 15.0596 20.5078 15.0596Z" fill="#999999" fill-opacity="1.000000" fill-rule="nonzero"/>
		<path id="Vector" d="M20.5078 17.6394L4.49268 17.6394C4.11328 17.6394 3.80518 17.9518 3.80518 18.3367C3.80518 18.7216 4.11328 19.0339 4.49268 19.0339L20.5078 19.0339C20.8872 19.0339 21.1953 18.7216 21.1953 18.3367C21.1953 17.9518 20.8872 17.6394 20.5078 17.6394Z" fill="#999999" fill-opacity="1.000000" fill-rule="nonzero"/>
		<path id="Vector" d="M20.5078 20.0101L20.1299 20.0101C19.7505 20.0101 19.4424 20.3225 19.4424 20.7074C19.4424 21.0923 19.7505 21.4047 20.1299 21.4047L20.5078 21.4047C20.8872 21.4047 21.1953 21.0923 21.1953 20.7074C21.1953 20.3218 20.8872 20.0101 20.5078 20.0101Z" fill="#999999" fill-opacity="1.000000" fill-rule="nonzero"/>
		<path id="Vector" d="M17.7236 20.0101L4.49268 20.0101C4.11328 20.0101 3.80518 20.3225 3.80518 20.7074C3.80518 21.0923 4.11328 21.4047 4.49268 21.4047L17.7246 21.4047C18.104 21.4047 18.4121 21.0923 18.4121 20.7074C18.4111 20.3218 18.103 20.0101 17.7236 20.0101Z" fill="#999999" fill-opacity="1.000000" fill-rule="nonzero"/>
	</g>
</svg>
